<svg xmlns="http://www.w3.org/2000/svg" viewBox="0 0 140 44" width="140" height="44">
  <rect width="140" height="44" rx="5" fill="#fff" stroke="#f0f0f0" stroke-width="1"/>
  <!-- Eagle silhouette simplified -->
  <g transform="translate(8,6)">
    <ellipse cx="14" cy="9" rx="4" ry="5" fill="#CC0000"/>
    <path d="M2 14 C2 14 8 10 14 10 C20 10 26 14 26 14 L22 20 C22 20 18 16 14 16 C10 16 6 20 6 20 Z" fill="#CC0000"/>
    <path d="M0 12 L6 15 L4 18 Z" fill="#CC0000"/>
    <path d="M28 12 L22 15 L24 18 Z" fill="#CC0000"/>
    <rect x="11" y="18" width="6" height="6" rx="1" fill="#CC0000"/>
    <path d="M8 24 L11 24 L11 28 Z" fill="#CC0000"/>
    <path d="M19 24 L20 28 L23 24 Z" fill="#CC0000"/>
  </g>
  <text x="46" y="20" font-family="Arial,sans-serif" font-size="11" font-weight="900" fill="#CC0000">GARUDA</text>
  <text x="46" y="33" font-family="Arial,sans-serif" font-size="7" fill="#888">Garba Rujukan Digital</text>
</svg>
